# xmcd CD database file
#
# Track frame offsets:
#	150
#	18073
#	36825
#	50335
#	67461
#	82862
#	98602
#	116149
#	132765
#	149516
#	174162
#	194646
#	211419
#	221886
#	233500
#	241737
#	254782
#	265116
#	279662
#	292720
#	309937
#	325604
#
# Disc length: 4506 seconds
#
# Revision: 0
# Processed by: cddbd v1.5.2PL0 Copyright (c) Steve Scherf et al.
# Submitted via: ACXtractor (MTCDDB.DLL V2003.07.15)
#
DISCID=3d119816
DTITLE=Tom McIvor - The Sound of Horses and On the Matilda
DYEAR=2005
DGENRE=Country
TTITLE0=When we Threw the Cork Away
TTITLE1=The Sound of Horses
TTITLE2=Push the Bush
TTITLE3=The Wings of his Dreams
TTITLE4=It's Not What he ment to Leave his Son
TTITLE5=Old Mates and Chute Gates
TTITLE6=Twenty One Guns
TTITLE7=Heir to the Throne
TTITLE8=The Wrong Yard
TTITLE9=Big Clumper Buck Jumper
TTITLE10=Ballad of Bill the Bastard
TTITLE11=Motheaten Memories
TTITLE12=Half a Dozen Memories
TTITLE13=The Little Desert Rose
TTITLE14=Four Red Kisses
TTITLE15=Chainsaw
TTITLE16=Darlin
TTITLE17=Laugh More Live Longer
TTITLE18=A Letter from Slim
TTITLE19=When the First Rains Come
TTITLE20=The Tree That Died of Shame
TTITLE21=The Gunnadoo Song
EXTD=ID3G:   2 YEAR: 2005
EXTT0=
EXTT1=
EXTT2=
EXTT3=
EXTT4=
EXTT5=
EXTT6=
EXTT7=
EXTT8=
EXTT9=
EXTT10=
EXTT11=
EXTT12=
EXTT13=
EXTT14=
EXTT15=
EXTT16=
EXTT17=
EXTT18=
EXTT19=
EXTT20=
EXTT21=
PLAYORDER=
